/* XPM */
static char *_03f9a3db91747fa84bf093ea53945b3AUbZF0SRNL5dDkti[] = {
/* columns rows colors chars-per-pixel */
"39 56 75 1 ",
"  c #745D6F",
". c #5B7A60",
"X c #5D7861",
"o c #647564",
"O c #736170",
"+ c #3E9653",
"@ c #3F9657",
"# c #6B5781",
"$ c #695883",
"% c #6A6489",
"& c #687B86",
"* c #687D86",
"= c #4F59AA",
"- c #4B5AAD",
"; c #275FC6",
": c #2B5EC3",
"> c #295BC4",
", c #295DC5",
"< c #2A5CC8",
"1 c #2762C7",
"2 c #2765C7",
"3 c #2861C7",
"4 c #2D63C4",
"5 c #2964C6",
"6 c #2769C7",
"7 c #2969C4",
"8 c #296CC4",
"9 c #2F6EC6",
"0 c #2761C8",
"q c #2863C8",
"w c #2864C8",
"e c #276BC8",
"r c #276DCB",
"t c #276ECC",
"y c #286AC8",
"u c #2670CA",
"i c #2774C9",
"p c #2670CD",
"a c #2574CF",
"s c #2971CB",
"d c #257FCD",
"f c #3173C6",
"g c #3277C6",
"h c #3278C6",
"j c #2575D0",
"k c #2578D1",
"l c #4182BE",
"z c #2B87C5",
"x c #2C87C5",
"c c #2681C8",
"v c #2585C8",
"b c #2581CD",
"n c #2788CB",
"m c #2793C6",
"M c #2795C6",
"N c #2893C6",
"B c #2F95C6",
"V c #269AC6",
"C c #2F98C6",
"Z c #2793CC",
"A c #2794CC",
"S c #3192C6",
"D c #3195C7",
"F c #3298C7",
"G c #3792C9",
"H c #3894C9",
"J c #389EC9",
"K c #2CB3CB",
"L c #2DB4CB",
"P c #2EC2CA",
"I c #31C5C9",
"U c #35D0CB",
"Y c #3AD3CB",
"T c #3CD4CA",
"R c #87B9E1",
/* pixels */
"RRRRRRRRRRRRRRRRRRRRRRRRRRRRRRRRRRRRRRR",
"RRRRRRRRRRRRRRRRRRRRRRRRRRRRRRRRRRRRRRR",
"RRRRRRRRRRRRRRRRRRRRRRRRRRRRRRRRRRRRRRR",
"RRRRRRRRRRRRRRRRRRRRRRRRRRRRRRRRRRRRRRR",
"RRRRRRRRRRRRRRRRRRRRRRRRRRRRRRRRRRRRRRR",
"RRRRRRRRRRRRRRRRRRRRRRRRRRRRRRRRRRRRRRR",
"RRRRRRRRRRRRRRRRRRRRRRRRRRRRRRRRRRRRRRR",
"RRRRRRRRRRRRRRRRRRRRRRRRRRRRRRRRRRRRRRR",
"RRRRRRRRRRRRRRRRRRRRRRRRRRRRRRRRRRRRRRR",
"RRRRRRRRRRRRRRRRRRRRRRRRRRRRRRRRRRRRRRR",
"RRRRRRRRRRRRRRRRRRRRRRRRRRRRRRRRRRRRRRR",
"RRRRRRRRRRRRRRRRRRRRRRRRRRRRRRRRRRRRRRR",
"RRRRRRRRRRRRRRRRRRRRRRRRRRRRRRRRRRRRRRR",
"RRRRRRRRRRRRRRRRRRRRRRRRRRRRRRRRRRRRRRR",
"RRRRRRRRRRRRRRRRRRRRRRRRRRRRRRRRRRRRRRR",
"RRRRRRRRRRRRRRRRRRRRRRRRRRRRRRRRRRRRRRR",
"RRRRRRRRRRRRRRRRRRRRRRRRRRRRRRRRRRRRRRR",
"RRRRRRRRRRRRRRRRRRRRRRRRRRRRRRRRRRRRRRR",
"RRRRRRRRRRRRRRRRRRRRRRRRRRRRRRRRRRRRRRR",
"RRRRRRRRRRRRRRRRRRRRRRRRRRRRRRRRRRRRRRR",
"RRRRRRRRRRRRRRRRRRRRRRRRRRRRRRRRRRRRRRR",
"RRRRRRRRRRRRRRRRRRRRRRRRRRRRRRRRRRRRRRR",
"RRRRRRRRRRRRRRRRRRRRRRRRRRRRRRRRRRRRRRR",
"RRRRRRRRRRRRRRRRRRRRRRRRRRRRRRRRRRRRRRR",
"RRRRRRRRRRRRRRRRRRRRRRRRRRRRRRRRRRRRRRR",
"RRRRRRRRRRRRRRRRRRRRRRRRRRRRRRRRRRRRRRR",
"RRRRRRRRRRRRRRRRRRRRRRRRRRRRRRRRRRRRRRR",
"RRRRRRRRRRRRRRRRRRRRRRRRRRRRRRRRRRRRRRR",
"RRRRRRRRRRRRRRRRRRRRRRRRRRRRRRRRRRRRRRR",
"RRRRRRRRRRRRRRRRRRRRRRRRRRRRRRRRRRRRRRR",
"RRRRRRRRRRRRRRRRRRRRRRRRRRRRRRRRRRRRRRR",
"RRRRRRRRRRRRRRRRRRRRRRRRRRRRRRRRRRRRRRR",
"RRRRRRRRRRRRRRRRRRRRRRRRRRRRRRRRRRRRRRR",
"RRRRRRRRRRRRRRRRRRRRRRRRRRRRRRRRRRRRRRR",
"RRRRRRRRRRRRRRRRRRRRRRRRRRRRRRRRRRRRRRR",
"RRRRRRRRRRRRRRRRRRRRRRRRRRRRRRRRRRRRRRR",
"er,3uM5er,3uM7er,3uM5er,3uM7er,3uM5er,3",
"agFCLukahFCLukagFCLukahFCLukagFCLukahFC",
"HUn5k3>HUn5k5>HUn5k3>HUn5k5>HUn5k3>HUn5",
"Pc;3j,4Pc;3j,4Pc;3j,4Pc;3j,4Pc;3j,4Pc;3",
"Z7>>wuzA7>>quzZ7>>wuzA7>>quzZ7>>wuzA7>>",
"d,>>>tJd,>>>pJd,>>>tJd,>>>pJd,>>>tJd,>>",
",atwerV,atwerV,atwerV,atwerV,atwerV,atw",
"yr,3rM7er,3rM7yr,3rM7er,3rM7yr,3rM7er,3",
"afDBLukafDBLukafDBLukafDBLukafDBLukafDB",
"GYn3k5>GYn3k5>GYn3k5>GYn3k5>GYn3k5>GYn3",
"Pv11j,4Pv11j,4Pv11j,4Pv11j,4Pv11j,4Pv11",
"Z6>>wrxA7>>5rxZ6>>wrxA7>>5rxZ6>>wrxA7>>",
"b,>>>pJb,>>>pJb,>>>pJb,>>>pJb,>>>pJb,>>",
",pr3yrV,pt3yrV,pr3yrV,pt3yrV,pr3yrV,pt3",
"yt,3rm8et,qtN8yt,3rm8et,qtN8yt,3rm8et,q",
"a9SBLika9SBKika9SBLika9SBKika9SBLika9SB",
"GTn3k5>GTn3k2>GTn3k5>GTn3k2>GTn3k5>GTn3",
"Inqqj,:In0qj,:Inqqj,:In0qj,:Inqqj,:In0q",
"%*ls<=$####$%%*ls<=$####$%%&ls<-$####$%",
"@@oO .++++++++@oO .++++++++@oO X@++++++"
};
