/* XPM */
static char *_b61b89e6a824d27ebd11bcf321e4e0eGWinHKpWmo21bMAc[] = {
/* columns rows colors chars-per-pixel */
"39 56 77 1 ",
"  c #745D6F",
". c #5B7A60",
"X c #5D7861",
"o c #647564",
"O c #736170",
"+ c #3E9653",
"@ c #3F9657",
"# c #6B5781",
"$ c #695883",
"% c #6A6489",
"& c #687B86",
"* c #687D86",
"= c #4F59AA",
"- c #4B5AAD",
"; c #275FC6",
": c #2B5EC3",
"> c #295BC4",
", c #295EC6",
"< c #2A5CC8",
"1 c #2762C7",
"2 c #2765C7",
"3 c #2863C7",
"4 c #2D63C4",
"5 c #2967C4",
"6 c #2769C7",
"7 c #2969C4",
"8 c #296CC4",
"9 c #2F6EC6",
"0 c #2761C8",
"q c #2863C8",
"w c #2864C8",
"e c #276BC8",
"r c #266DCB",
"t c #266FCD",
"y c #286AC8",
"u c #2670CA",
"i c #2774C9",
"p c #2670CD",
"a c #2674CE",
"s c #2971CB",
"d c #257FCD",
"f c #3173C6",
"g c #3277C6",
"h c #3278C6",
"j c #2575D0",
"k c #2578D1",
"l c #4182BE",
"z c #2B87C5",
"x c #2C87C5",
"c c #2680C8",
"v c #2585C8",
"b c #2581CD",
"n c #2689CB",
"m c #2793C6",
"M c #2795C6",
"N c #2893C6",
"B c #2F96C6",
"V c #269AC6",
"C c #2E98C6",
"Z c #2793CC",
"A c #2795CC",
"S c #2896CC",
"D c #3293C6",
"F c #3194C7",
"G c #3299C7",
"H c #3792C9",
"J c #3996C9",
"K c #389EC9",
"L c #2CB3CB",
"P c #2DB4CB",
"I c #2DC3C9",
"U c #31C3CA",
"Y c #31C5C9",
"T c #35D0CB",
"R c #3AD3CB",
"E c #3CD4CB",
"W c #87B9E1",
/* pixels */
"WWWWWWWWWWWWWWWWWWWWWWWWWWWWWWWWWWWWWWW",
"WWWWWWWWWWWWWWWWWWWWWWWWWWWWWWWWWWWWWWW",
"WWWWWWWWWWWWWWWWWWWWWWWWWWWWWWWWWWWWWWW",
"WWWWWWWWWWWWWWWWWWWWWWWWWWWWWWWWWWWWWWW",
"WWWWWWWWWWWWWWWWWWWWWWWWWWWWWWWWWWWWWWW",
"WWWWWWWWWWWWWWWWWWWWWWWWWWWWWWWWWWWWWWW",
"WWWWWWWWWWWWWWWWWWWWWWWWWWWWWWWWWWWWWWW",
"WWWWWWWWWWWWWWWWWWWWWWWWWWWWWWWWWWWWWWW",
"WWWWWWWWWWWWWWWWWWWWWWWWWWWWWWWWWWWWWWW",
"WWWWWWWWWWWWWWWWWWWWWWWWWWWWWWWWWWWWWWW",
"WWWWWWWWWWWWWWWWWWWWWWWWWWWWWWWWWWWWWWW",
"WWWWWWWWWWWWWWWWWWWWWWWWWWWWWWWWWWWWWWW",
"WWWWWWWWWWWWWWWWWWWWWWWWWWWWWWWWWWWWWWW",
"WWWWWWWWWWWWWWWWWWWWWWWWWWWWWWWWWWWWWWW",
"WWWWWWWWWWWWWWWWWWWWWWWWWWWWWWWWWWWWWWW",
"WWWWWWWWWWWWWWWWWWWWWWWWWWWWWWWWWWWWWWW",
"WWWWWWWWWWWWWWWWWWWWWWWWWWWWWWWWWWWWWWW",
"WWWWWWWWWWWWWWWWWWWWWWWWWWWWWWWWWWWWWWW",
"WWWWWWWWWWWWWWWWWWWWWWWWWWWWWWWWWWWWWWW",
"WWWWWWWWWWWWWWWWWWWWWWWWWWWWWWWWWWWWWWW",
"WWWWWWWWWWWWWWWWWWWWWWWWWWWWWWWWWWWWWWW",
"WWWWWWWWWWWWWWWWWWWWWWWWWWWWWWWWWWWWWWW",
"WWWWWWWWWWWWWWWWWWWWWWWWWWWWWWWWWWWWWWW",
"WWWWWWWWWWWWWWWWWWWWWWWWWWWWWWWWWWWWWWW",
"WWWWWWWWWWWWWWWWWWWWWWWWWWWWWWWWWWWWWWW",
"WWWWWWWWWWWWWWWWWWWWWWWWWWWWWWWWWWWWWWW",
"WWWWWWWWWWWWWWWWWWWWWWWWWWWWWWWWWWWWWWW",
"WWWWWWWWWWWWWWWWWWWWWWWWWWWWWWWWWWWWWWW",
"WWWWWWWWWWWWWWWWWWWWWWWWWWWWWWWWWWWWWWW",
"WWWWWWWWWWWWWWWWWWWWWWWWWWWWWWWWWWWWWWW",
"WWWWWWWWWWWWWWWWWWWWWWWWWWWWWWWWWWWWWWW",
"WWWWWWWWWWWWWWWWWWWWWWWWWWWWWWWWWWWWWWW",
"WWWWWWWWWWWWWWWWWWWWWWWWWWWWWWWWWWWWWWW",
"WWWWWWWWWWWWWWWWWWWWWWWWWWWWWWWWWWWWWWW",
"WWWWWWWWWWWWWWWWWWWWWWWWWWWWWWWWWWWWWWW",
"WWWWWWWWWWWWWWWWWWWWWWWWWWWWWWWWWWWWWWW",
"uM5er,3uM7er,3uM5er,3uM7er,3uM5er,3uM5e",
"PukahGCPukagGCPukahGCPukagGCPukahGCPukp",
"k3>JTn5k5>JTn5k3>JTn5k5>JTn5k3>JTn5k5>J",
"j,4Ic;3j,4Ic;3j,4Ic;3j,4Ic;3j,4Ic;3j,4I",
"wuzA7>>quzZ7>>wuzA7>>quzZ7>>wuzA7>>quzS",
">tKd,>>>pKd,>>>tKd,>>>pKd,>>>tKd,>>>pKd",
"erV,atwerV,atwerV,atwerV,atwerV,atwerV,",
"rM7er,3rM7yr,3rM7er,3rM7yr,3rM7er,3rM7e",
"PukafFBPukafFBPukafFBPukafFBPukafFBPukp",
"k5>HRn3k5>HRn3k5>HRn3k5>HRn3k5>HRn3k5>J",
"j,4Iv11j,4Iv11j,4Iv11j,4Iv11j,4Iv11j,4I",
"wrxA7>>5rxZ6>>wrxA7>>5rxZ6>>wrxA7>>5rzA",
">pKb,>>>pKb,>>>pKb,>>>pKb,>>>pKb,>>>pKb",
"yrV,pt3yrV,pr3yrV,pt3yrV,pr3yrV,pt3yrV,",
"rm8et,qtN8yt,3rm8et,qtN8yt,3rm8et,qtN86",
"Pika9DBLika9DBPika9DBLika9DBPika9DBLikp",
"k5>HEn3k2>HEn3k5>HEn3k2>HEn3k5>HEn3k2>H",
"j,:Yn0qj,:Ynqqj,:Yn0qj,:Ynqqj,:Yn0qj,,U",
"%*ls<=$####$%%*ls<=$####$%%&ls<-$####$%",
"@@oO .++++++++@oO .++++++++@oO X@++++++"
};
