/* XPM */
static char *_c4a893312b74144ee7bf857564989b7zWJdKu2Vr2a1ATpE[] = {
/* columns rows colors chars-per-pixel */
"39 56 75 1 ",
"  c #745D6F",
". c #5B7A60",
"X c #5D7861",
"o c #647564",
"O c #736170",
"+ c #3E9653",
"@ c #3F9657",
"# c #6B5781",
"$ c #695883",
"% c #6A6489",
"& c #687B86",
"* c #687D86",
"= c #4F59AA",
"- c #4B5AAD",
"; c #275FC6",
": c #2B5FC3",
"> c #295BC4",
", c #295CC5",
"< c #2A5CC8",
"1 c #2762C7",
"2 c #2765C7",
"3 c #2861C7",
"4 c #2D63C4",
"5 c #2964C6",
"6 c #2769C7",
"7 c #2969C4",
"8 c #296DC4",
"9 c #2F6EC6",
"0 c #2761C8",
"q c #2863C8",
"w c #2864C8",
"e c #276BC8",
"r c #266DCB",
"t c #276ECC",
"y c #286AC8",
"u c #2671CB",
"i c #2774C9",
"p c #2670CD",
"a c #2674CE",
"s c #2971CB",
"d c #257FCC",
"f c #3173C6",
"g c #3277C6",
"h c #3278C6",
"j c #2576D0",
"k c #2578D1",
"l c #4182BE",
"z c #2B87C5",
"x c #2C87C6",
"c c #2680C8",
"v c #2684C8",
"b c #2581CD",
"n c #2689CB",
"m c #2793C6",
"M c #2796C7",
"N c #2893C6",
"B c #2F96C6",
"V c #269BC5",
"C c #2E98C6",
"Z c #2792CC",
"A c #2795CC",
"S c #3293C6",
"D c #3194C7",
"F c #3299C7",
"G c #3793C9",
"H c #3996C9",
"J c #399EC9",
"K c #2CB3CB",
"L c #2CB4CB",
"P c #2DC3C9",
"I c #31C4CA",
"U c #35D0CB",
"Y c #39D3CB",
"T c #3CD4CB",
"R c #87B9E1",
/* pixels */
"RRRRRRRRRRRRRRRRRRRRRRRRRRRRRRRRRRRRRRR",
"RRRRRRRRRRRRRRRRRRRRRRRRRRRRRRRRRRRRRRR",
"RRRRRRRRRRRRRRRRRRRRRRRRRRRRRRRRRRRRRRR",
"RRRRRRRRRRRRRRRRRRRRRRRRRRRRRRRRRRRRRRR",
"RRRRRRRRRRRRRRRRRRRRRRRRRRRRRRRRRRRRRRR",
"RRRRRRRRRRRRRRRRRRRRRRRRRRRRRRRRRRRRRRR",
"RRRRRRRRRRRRRRRRRRRRRRRRRRRRRRRRRRRRRRR",
"RRRRRRRRRRRRRRRRRRRRRRRRRRRRRRRRRRRRRRR",
"RRRRRRRRRRRRRRRRRRRRRRRRRRRRRRRRRRRRRRR",
"RRRRRRRRRRRRRRRRRRRRRRRRRRRRRRRRRRRRRRR",
"RRRRRRRRRRRRRRRRRRRRRRRRRRRRRRRRRRRRRRR",
"RRRRRRRRRRRRRRRRRRRRRRRRRRRRRRRRRRRRRRR",
"RRRRRRRRRRRRRRRRRRRRRRRRRRRRRRRRRRRRRRR",
"RRRRRRRRRRRRRRRRRRRRRRRRRRRRRRRRRRRRRRR",
"RRRRRRRRRRRRRRRRRRRRRRRRRRRRRRRRRRRRRRR",
"RRRRRRRRRRRRRRRRRRRRRRRRRRRRRRRRRRRRRRR",
"RRRRRRRRRRRRRRRRRRRRRRRRRRRRRRRRRRRRRRR",
"RRRRRRRRRRRRRRRRRRRRRRRRRRRRRRRRRRRRRRR",
"RRRRRRRRRRRRRRRRRRRRRRRRRRRRRRRRRRRRRRR",
"RRRRRRRRRRRRRRRRRRRRRRRRRRRRRRRRRRRRRRR",
"RRRRRRRRRRRRRRRRRRRRRRRRRRRRRRRRRRRRRRR",
"RRRRRRRRRRRRRRRRRRRRRRRRRRRRRRRRRRRRRRR",
"RRRRRRRRRRRRRRRRRRRRRRRRRRRRRRRRRRRRRRR",
"RRRRRRRRRRRRRRRRRRRRRRRRRRRRRRRRRRRRRRR",
"RRRRRRRRRRRRRRRRRRRRRRRRRRRRRRRRRRRRRRR",
"RRRRRRRRRRRRRRRRRRRRRRRRRRRRRRRRRRRRRRR",
"RRRRRRRRRRRRRRRRRRRRRRRRRRRRRRRRRRRRRRR",
"RRRRRRRRRRRRRRRRRRRRRRRRRRRRRRRRRRRRRRR",
"RRRRRRRRRRRRRRRRRRRRRRRRRRRRRRRRRRRRRRR",
"RRRRRRRRRRRRRRRRRRRRRRRRRRRRRRRRRRRRRRR",
"RRRRRRRRRRRRRRRRRRRRRRRRRRRRRRRRRRRRRRR",
"RRRRRRRRRRRRRRRRRRRRRRRRRRRRRRRRRRRRRRR",
"RRRRRRRRRRRRRRRRRRRRRRRRRRRRRRRRRRRRRRR",
"RRRRRRRRRRRRRRRRRRRRRRRRRRRRRRRRRRRRRRR",
"RRRRRRRRRRRRRRRRRRRRRRRRRRRRRRRRRRRRRRR",
"RRRRRRRRRRRRRRRRRRRRRRRRRRRRRRRRRRRRRRR",
"er,3uM7er,3uM5er,3uM7er,3uM5er,3uM7er,3",
"ahFCLukagFCLukahFCLukagFCLukahFCLukagFC",
"HUn5k5>HUn5k3>HUn5k5>HUn5k3>HUn5k5>HUn5",
"Pc;3j,4Pc;3j,4Pc;3j,4Pc;3j,4Pc;3j,4Pc;3",
"A7>>quzZ7>>wuzA7>>quzZ7>>wuzA7>>quzZ7>>",
"d,>>>pJd,>>>tJd,>>>pJd,>>>tJd,>>>pJd,>>",
",atwerV,atwerV,atwerV,atwerV,atwerV,atw",
"er,3rM7yr,3rM7er,3rM7yr,3rM7er,3rM7yr,3",
"afDBLukafDBLukafDBLukafDBLukafDBLukafDB",
"GYn3k5>GYn3k5>GYn3k5>GYn3k5>GYn3k5>GYn3",
"Pv11j,4Pv11j,4Pv11j,4Pv11j,4Pv11j,4Pv11",
"A7>>5rxZ6>>wrxA7>>5rxZ6>>wrxA7>>5rxZ6>>",
"b,>>>pJb,>>>pJb,>>>pJb,>>>pJb,>>>pJb,>>",
",pt3yrV,pr3yrV,pt3yrV,pr3yrV,pt3yrV,pr3",
"et,qtN8yt,3rm8et,qtN8yt,3rm8et,qtN8yt,3",
"a9SBKika9SBLika9SBKika9SBLika9SBKika9SB",
"GTn3k2>GTn3k5>GTn3k2>GTn3k5>GTn3k2>GTn3",
"In0qj,:Inqqj,:In0qj,:Inqqj,:In0qj,:Inqq",
"%*ls<=$####$%%*ls<=$####$%%&ls<-$####$%",
"@@oO .++++++++@oO .++++++++@oO X@++++++"
};
